<?xml version="1.0" encoding="utf-8"?>
<!-- Generator: Adobe Illustrator 22.1.0, SVG Export Plug-In . SVG Version: 6.00 Build 0)  -->
<svg version="1.1" id="Capa_1" xmlns="http://www.w3.org/2000/svg" xmlns:xlink="http://www.w3.org/1999/xlink" x="0px" y="0px"
	 viewBox="0 0 201 56" style="enable-background:new 0 0 201 56;" xml:space="preserve">
<style type="text/css">
	.st0{fill:#FFFFFF;}
</style>
<g>
	<path class="st0" d="M54.5,17.3c0.3,0.1,0.6,0.2,0.9,0.3c1.9,0.6,3.7,1.4,5.3,2.7c0.8,0.6,1.5,1.2,2,2c1.2,1.7,1.6,3.6,1.2,5.6
		c-0.2,0.9-0.4,1.8-0.8,2.7c-0.4,0.9-1,1.6-1.7,2.3c-0.9,0.8-1.8,1.4-2.8,2c-2,1.2-4.2,2.2-6.4,3c-3.4,1.3-6.9,2.3-10.5,3.2
		c-2.1,0.5-4.2,1-6.3,1.4c-0.6,0.1-1.3,0.2-2,0.2c-1.2,0.1-2.3,0.3-3.5,0.4c-1.2,0.1-2.4,0.3-3.7,0.4c-1.3,0.1-2.6,0.3-3.9,0.4
		c-1.3,0.1-2.6,0.3-4,0.2c-0.6,0-1-0.4-1.1-1c0-0.4,0.1-0.8,0.3-1.2c0.2-0.4,0.5-0.8,0.8-1.2c1.4-2.1,2.8-4.1,4.2-6.2
		c1.7-2.7,3.3-5.4,4.6-8.4c0.6-1.4,1.2-2.8,1.6-4.2c0.1-0.4,0.4-0.7,0.9-0.6c0.5,0,0.8,0.3,0.8,0.8c0.1,2.6,0.3,5.1,0.3,7.7
		c0,2.1-0.1,4.2-0.4,6.2c-0.1,0.7-0.3,1.5-0.5,2.2c0.1,0,0.1,0,0.2,0c2.4-0.3,4.7-0.8,7-1.3c2.9-0.6,5.7-1.4,8.5-2.3
		c2.3-0.8,4.6-1.8,6.8-3c1.6-0.9,3-1.9,4.1-3.4c0.7-0.9,1.3-1.9,1.5-3.1c0.3-1.2,0.1-2.5-0.4-3.6c-0.4-1.1-1.1-2.1-1.9-3
		c-0.4-0.4-0.8-0.9-1.2-1.3C54.6,17.4,54.5,17.4,54.5,17.3C54.5,17.3,54.5,17.3,54.5,17.3z"/>
	<path class="st0" d="M64.8,22.6C64.8,22.6,64.8,22.6,64.8,22.6c-0.9-1.8-2.1-3.2-3.6-4.4c-1.8-1.5-3.9-2.6-6.2-3.4
		c-2-0.7-4-1.1-6-1.4c-2.9-0.4-5.7-0.5-8.6-0.4c-2.2,0.1-4.5,0.3-6.7,0.5c-6.2,0.8-12.2,2.2-18.2,3.9c-1.1,0.3-2.3,0.7-3.4,1
		c-0.1,0-0.2,0.1-0.3,0.1c-0.5,0.1-1-0.2-1.1-0.7c-0.1-0.3-0.1-0.6-0.1-0.9c0-0.3,0.3-0.5,0.5-0.7c0.8-0.4,1.5-0.7,2.3-1.1
		c5.8-2.6,11.7-4.9,17.7-6.8c3.1-0.9,6.2-1.7,9.4-2.3c2.9-0.5,5.9-0.9,8.9-0.9c2.2,0,4.3,0.2,6.4,0.8c1.8,0.5,3.4,1.3,4.9,2.5
		c1.8,1.5,2.9,3.3,3.6,5.5c0.6,1.9,0.7,3.8,0.7,5.7C65.1,20.7,65,21.7,64.8,22.6C64.9,22.6,64.9,22.6,64.8,22.6z"/>
	<path class="st0" d="M144.3,12.4c6,0,12,0,18,0c0,1,0,2.1,0,3.1c-4.6,0-9.2,0-13.9,0c0,1.3,0,2.6,0,3.9c2.7,0,5.4,0,8,0
		c0,1,0,2,0,3.1c-2.7,0-5.3,0-8,0c-0.1,0.3-0.1,3.5,0,4.3c0,0,0,0,0,0c0,0,0,0,0,0c0,0,0.1,0,0.1,0c4.6,0,9.2,0,13.9,0c0,0,0,0,0,0
		c0.1,0.2,0.1,2.9,0,3.3c-6.1,0-12.1,0-18.2,0C144.3,24.2,144.3,18.3,144.3,12.4z"/>
	<path class="st0" d="M188.2,30.2c-0.1,0-0.2,0-0.3,0c-1.6,0-3.2,0-4.9,0c-0.2,0-0.4-0.1-0.6-0.2c-2-2.1-3.9-4.1-5.9-6.1
		c-0.1-0.1-0.2-0.2-0.3-0.3c-0.1,0.1-0.2,0.2-0.3,0.4c-1.8,2-3.6,4-5.3,6c-0.2,0.2-0.3,0.3-0.6,0.3c-1.4,0-2.7,0-4.1,0
		c-0.1,0-0.2,0-0.3,0c0,0,0,0,0-0.1c0,0,0,0,0,0c2.7-3,5.5-6,8.2-9.1c-2.8-2.9-5.6-5.8-8.4-8.7c0.1,0,0.2,0,0.3,0c1.7,0,3.3,0,5,0
		c0.2,0,0.3,0.1,0.5,0.2c1.7,1.8,3.5,3.6,5.2,5.3c0.1,0.1,0.1,0.1,0.2,0.2c0.1-0.1,0.2-0.2,0.3-0.3c1.6-1.7,3.2-3.4,4.8-5.2
		c0.2-0.2,0.4-0.3,0.7-0.3c1.3,0,2.6,0,3.9,0c0.1,0,0.2,0,0.4,0c0,0.2-0.1,0.2-0.2,0.3c-1.7,1.9-3.5,3.7-5.2,5.6
		c-0.6,0.7-1.3,1.4-1.9,2c-0.1,0.1-0.1,0.2-0.2,0.3C182,23.8,185.1,26.9,188.2,30.2C188.2,30.2,188.2,30.2,188.2,30.2z"/>
	<path class="st0" d="M79.5,12.4c3.4,5.9,6.7,11.9,10.1,17.8c-0.3,0.1-3.8,0.1-4.6,0c-0.7-1.3-1.4-2.6-2.1-3.9c-3.7,0-7.4,0-11.1,0
		c-0.7,1.3-1.4,2.6-2.1,3.9c-1.4,0-2.7,0-4.1,0c0.1-0.1,0.1-0.2,0.2-0.3c2.9-5.2,5.9-10.5,8.8-15.7c0.3-0.5,0.6-1.1,0.9-1.6
		c0.1-0.1,0.1-0.2,0.3-0.2C77,12.3,78.2,12.3,79.5,12.4C79.5,12.3,79.5,12.3,79.5,12.4z M73.6,23c2.6,0,5.1,0,7.6,0
		c-0.1-0.3-3.7-7.2-3.9-7.4C76.1,18.1,74.8,20.5,73.6,23z"/>
	<path class="st0" d="M107.1,15.5c0,1.6,0,3.1,0,4.7c0.8,0,1.6,0,2.4,0c0.8,0,1.6,0,2.4,0c0.8,0,1.6,0,2.4,0c0.1,0.2,0.1,2.8,0,3.3
		c-0.8,0-1.6,0-2.4,0c-0.8,0-1.6,0-2.5,0c-0.8,0-1.6,0-2.5,0c0,2.2,0,4.4,0,6.7c-1.4,0-2.7,0-4.1,0c0-5.9,0-11.9,0-17.8c0,0,0,0,0,0
		c0,0,0,0,0,0c5.8,0,11.7,0,17.5,0c0.1,0,0.1,0,0.2,0c0.1,0.2,0.1,2.8,0,3.2C116.2,15.5,111.7,15.5,107.1,15.5z"/>
	<path class="st0" d="M123.6,30.2c0-5.9,0-11.9,0-17.8c1.4,0,2.7,0,4.1,0c0,0.7,0,1.4,0,2c0,0.7,0,1.4,0,2.1c0,0.7,0,1.4,0,2.1
		c0,0.7,0,1.4,0,2.1c0,0.7,0,1.4,0,2.1s0,1.4,0,2.1c0,0.7,0,1.4,0,2.1c4.4,0,8.8,0,13.2,0c0,1.1,0,2.2,0,3.3
		C135.1,30.2,129.4,30.2,123.6,30.2z"/>
	<path class="st0" d="M92.6,12.4c1.3,0,2.7,0,4,0c0.1,0.2,0.1,17.4,0,17.8c-1.3,0-2.7,0-4,0C92.6,24.3,92.6,18.3,92.6,12.4z"/>
	<path class="st0" d="M164.1,46.6c-0.4,0-0.9,0-1.3,0c-0.1,0-0.2-0.1-0.2-0.1c-0.1-0.2-0.3-0.3-0.4-0.5c-0.1-0.1-0.2-0.2-0.4-0.2
		c-1,0-2.1,0-3.1,0c-0.2,0-0.3,0.1-0.4,0.2c-0.1,0.2-0.3,0.3-0.4,0.5c-0.1,0.2-0.2,0.2-0.4,0.2c-1.3,0-2.6,0-3.8,0c-1,0-1.9,0-2.9,0
		c-0.1,0-0.2,0-0.3,0c-0.1-0.4-0.1-0.4,0.2-0.6c1.1-0.8,2.2-1.5,3.4-2.3c0.1-0.1,0.1-0.1,0.2-0.2c-1.1,0-2.2,0-3.4,0
		c0-0.2,0-0.4,0-0.7c1.9,0,3.8,0,5.6,0c0.1,0.2,0,0.4-0.2,0.5c-1.1,0.8-2.3,1.5-3.4,2.3c-0.1,0.1-0.2,0.1-0.3,0.3c0.3,0,0.6,0,0.9,0
		c0.3,0,0.7,0,1,0c0.3,0,0.6,0,1,0c0.3,0,0.6,0,1,0c0,0.2,0,0.4,0,0.5c0.1,0,0.2-0.1,0.2-0.2c0.9-1.1,1.8-2.1,2.7-3.2
		c0.1-0.2,0.3-0.3,0.5-0.2c0.3,0,0.5,0,0.8,0c0.1,0,0.2,0,0.3,0.1C162.1,44.2,163.1,45.4,164.1,46.6
		C164.1,46.6,164.1,46.6,164.1,46.6z M161.5,45.1c-0.4-0.5-0.8-1-1.2-1.5c-0.3,0.3-1.1,1.3-1.1,1.5
		C159.9,45.1,160.6,45.1,161.5,45.1z"/>
	<path class="st0" d="M105.6,46.6c-0.5,0-1.1,0-1.6,0c-0.1,0-0.2-0.1-0.2-0.1c-0.2-0.2-0.4-0.4-0.5-0.7c-0.1-0.1-0.2-0.2-0.3-0.2
		c-1.3,0-2.5,0-3.8,0c-0.1,0-0.2,0.1-0.3,0.2c-0.2,0.2-0.3,0.5-0.5,0.7c0,0.1-0.1,0.1-0.2,0.1c-0.4,0-0.9,0-1.4,0
		c0.1-0.1,0.1-0.2,0.2-0.2c1.1-1.4,2.2-2.8,3.4-4.1c0.1-0.2,0.3-0.2,0.5-0.2c0.3,0,0.7,0,1,0c0.1,0,0.2,0,0.3,0.1
		C103.2,43.6,104.4,45.1,105.6,46.6C105.6,46.5,105.6,46.5,105.6,46.6z M101.1,42.9c-0.4,0.4-1.3,1.6-1.4,1.8c0.9,0,1.8,0,2.8,0
		C102,44.1,101.6,43.6,101.1,42.9z"/>
	<path class="st0" d="M122.7,46.6c-0.7,0-1.5,0-2.2,0c-0.2,0-0.5,0-0.7-0.1c-0.3-0.1-0.5-0.2-0.5-0.5c0-0.8,0-1.7,0-2.5
		c0-0.3,0.2-0.5,0.5-0.5c0.2,0,0.5-0.1,0.7-0.1c1.5,0,3,0,4.5,0c0.2,0,0.5,0,0.7,0.1c0.4,0.1,0.5,0.3,0.6,0.6c0,0.2,0,0.4,0,0.6
		c0,0.5,0,0.9,0,1.4c0,0.1,0,0.3,0,0.4c0,0.3-0.2,0.5-0.5,0.5c-0.2,0.1-0.5,0.1-0.8,0.1C124.2,46.6,123.5,46.6,122.7,46.6z
		 M124.9,45.9c0-0.8,0-1.5,0-2.3c-1.4,0-2.9,0-4.3,0c-0.1,0.4-0.1,2.1,0,2.3C122.1,45.9,123.5,45.9,124.9,45.9z"/>
	<path class="st0" d="M177,46.6c-0.7,0-1.5,0-2.2,0c-0.2,0-0.5,0-0.7-0.1c-0.4-0.1-0.5-0.3-0.6-0.7c0-0.1,0-0.3,0-0.4
		c0-0.5,0-1.1,0-1.6c0-0.7,0.2-0.8,0.8-0.9c0.2,0,0.4,0,0.5,0c1.4,0,2.9,0,4.3,0c0.2,0,0.5,0,0.7,0.1c0.4,0.1,0.7,0.3,0.7,0.7
		c0,0.7,0,1.4,0,2.2c0,0.4-0.2,0.6-0.6,0.7c-0.2,0-0.4,0.1-0.6,0.1C178.5,46.6,177.8,46.6,177,46.6z M174.8,45.9
		c0.4,0.1,4.1,0.1,4.3,0c0-0.7,0-1.5,0-2.2c-0.4-0.1-4.1-0.1-4.3,0C174.8,44.4,174.8,45.1,174.8,45.9z"/>
	<path class="st0" d="M128.3,44.1c0,0.8,0,1.6,0,2.5c-0.4,0-0.7,0-1,0c-0.1-0.2-0.1-3.3,0-3.7c0.3,0,0.6,0,0.9,0
		c0.1,0,0.2,0.1,0.3,0.2c0.7,0.6,1.4,1.2,2.1,1.8c0.1,0.1,0.2,0.2,0.3,0.3c0.1-0.1,0.2-0.1,0.3-0.2c0.7-0.6,1.4-1.2,2.1-1.8
		c0.2-0.1,0.3-0.2,0.6-0.2c0.2,0,0.5,0,0.7,0c0,1.3,0,2.5,0,3.7c-0.4,0-0.8,0-1.2,0c0-0.8,0-1.6,0-2.5c-0.1,0.1-0.2,0.1-0.2,0.2
		c-0.6,0.6-1.3,1.1-1.9,1.7c-0.3,0.3-0.5,0.2-0.7,0c-0.6-0.6-1.3-1.1-1.9-1.6C128.5,44.3,128.4,44.2,128.3,44.1z"/>
	<path class="st0" d="M187,45.3c0-0.9,0-1.7,0-2.5c0.4,0,0.7,0,1.1,0c0.1,0.2,0.1,3.2,0,3.7c-0.4,0-0.9,0.1-1.3-0.2
		c-1.2-0.7-2.5-1.4-3.8-2.1c-0.1-0.1-0.2-0.1-0.4-0.2c0,0.8,0,1.6,0,2.5c-0.4,0-0.8,0-1.2,0c0-1.3,0-2.5,0-3.7c0.5,0,0.9,0,1.3,0.2
		c1.2,0.7,2.5,1.4,3.8,2.1C186.7,45.2,186.8,45.3,187,45.3z"/>
	<path class="st0" d="M170.3,44.1c-0.4,0-0.8,0.1-1.3,0.1c0-0.2,0-0.5,0-0.7c-1.2,0-2.3,0-3.5,0c-0.1,0.2-0.1,1.9,0,2.3
		c1.1,0,2.3,0,3.5,0c0-0.1,0-0.2,0-0.4c0-0.1,0-0.3,0-0.4c0.5,0.1,0.9,0.1,1.3,0.2c0,0.3,0,0.5,0,0.7c0,0.3-0.2,0.5-0.5,0.5
		c-0.2,0-0.4,0.1-0.6,0.1c-1.3,0-2.6,0-4,0c-0.2,0-0.4,0-0.6-0.1c-0.3-0.1-0.4-0.2-0.5-0.5c0-0.1,0-0.3,0-0.4c0-0.6,0-1.2,0-1.8
		c0-0.1,0-0.2,0-0.2c0-0.4,0.2-0.6,0.7-0.7c0.2,0,0.4-0.1,0.6-0.1c1.2,0,2.4,0,3.6,0c0.2,0,0.5,0,0.7,0.1c0.4,0.1,0.6,0.3,0.6,0.7
		c0,0.1,0,0.2,0,0.4C170.3,44,170.3,44.1,170.3,44.1z"/>
	<path class="st0" d="M107,42.9c0,1,0,2,0,3c1.3,0,2.5,0,3.7,0c0-1,0-2,0-3c0.5,0,0.9,0,1.3,0c0,0.1,0,0.2,0,0.3c0,0.8,0,1.6,0,2.5
		c0,0.1,0,0.2,0,0.3c0,0.3-0.2,0.5-0.5,0.6c-0.2,0-0.3,0.1-0.5,0.1c-1.5,0-2.9,0-4.4,0c-0.2,0-0.3,0-0.5-0.1
		c-0.3-0.1-0.4-0.2-0.5-0.5c0-0.1,0-0.2,0-0.4c0-0.9,0-1.7,0-2.6c0-0.1,0-0.1,0-0.2C106.1,42.9,106.5,42.9,107,42.9z"/>
	<path class="st0" d="M135,46.6c0.1-0.1,0.1-0.2,0.2-0.2c0.9-1.1,1.9-2.2,2.8-3.3c0.1-0.2,0.3-0.2,0.5-0.2c0.3,0,0.5,0,0.8,0
		c0.1,0,0.2,0,0.3,0.1c1,1.2,2,2.4,3.1,3.5c0,0,0,0,0,0.1c-0.1,0-0.1,0-0.2,0c-0.3,0-0.7,0-1,0c-0.2,0-0.3,0-0.4-0.2
		c0,0,0-0.1-0.1-0.1c-0.2-0.2-0.3-0.5-0.5-0.6c-0.2-0.1-0.5,0-0.7,0c-0.8,0-1.7,0-2.5,0c-0.2,0-0.3,0-0.4,0.2
		c-0.1,0.2-0.3,0.3-0.4,0.5c-0.1,0.1-0.1,0.1-0.2,0.1C135.8,46.6,135.4,46.6,135,46.6z M139.9,45.1c-0.4-0.5-0.8-1-1.2-1.5
		c-0.4,0.3-1.1,1.3-1.1,1.5C138.3,45.1,139.1,45.1,139.9,45.1z"/>
	<path class="st0" d="M147.8,42.9c0,0.2,0,0.4,0,0.7c-0.9,0-1.7,0-2.6,0c0,1,0,2,0,3c-0.5,0-0.9,0-1.3,0c0-1,0-2,0-3
		c-0.9,0-1.7,0-2.6,0c0-0.2,0-0.4,0-0.6C141.6,42.9,147.4,42.8,147.8,42.9z"/>
	<path class="st0" d="M116.4,46.6c-0.5,0-0.9,0-1.3,0c0-1,0-2,0-3c-0.9,0-1.7,0-2.6,0c0-0.2,0-0.5,0-0.7c2.2,0,4.3,0,6.5,0
		c0,0.2,0,0.4,0,0.7c-0.8,0-1.7,0-2.6,0C116.4,44.6,116.4,45.6,116.4,46.6z"/>
	<path class="st0" d="M148.3,42.9c0.4,0,0.8,0,1.2,0c0.1,0.2,0.1,3.2,0,3.7c-0.4,0-0.8,0-1.3,0C148.3,45.4,148.3,44.1,148.3,42.9z"
		/>
	<path class="st0" d="M172.5,46.6c-0.4,0-0.8,0-1.2,0c-0.1-0.2-0.1-3.3,0-3.7c0.4,0,0.8,0,1.3,0C172.5,44.1,172.5,45.3,172.5,46.6z"
		/>
	<path class="st0" d="M176.1,42.3c0.1-0.2,0.2-0.3,0.3-0.4c0.3-0.3,0.5-0.6,0.8-1c0.1-0.1,0.2-0.2,0.3-0.2c0.4,0,0.7,0,1.2,0
		c-0.1,0.1-0.1,0.1-0.2,0.2c-0.5,0.4-1,0.8-1.4,1.2c-0.1,0.1-0.2,0.1-0.3,0.1C176.6,42.3,176.4,42.3,176.1,42.3z"/>
	<path class="st0" d="M66.5,42.7c0.1,0,0.2,0,0.3,0c0,0,0,0,0,0C66.7,42.7,66.6,42.7,66.5,42.7C66.5,42.7,66.5,42.7,66.5,42.7z"/>
	<path class="st0" d="M19.9,50.7c-0.2-0.2,35.3-8.3,76.1-13.3c46-5.7,80.8-6.9,92.5-4.9c3.5,1.1,1.7,2.3-4.1,3.8
		c-10.5-0.2-44,0-75.4,2.2c-23.8,1.7-46.6,5.2-55.2,6.5C35.9,47.7,20.1,50.9,19.9,50.7z"/>
</g>
</svg>
